<svg width="20" height="20" viewBox="0 0 20 20" fill="none" xmlns="http://www.w3.org/2000/svg">
<path fill-rule="evenodd" clip-rule="evenodd" d="M20 10.0002C20 4.47732 15.5225 0.000198364 10 0.000198364C4.47745 0.000198364 0 4.47732 0 10.0002C0 15.5224 4.47779 20.0002 10 20.0002C15.5222 20.0002 20 15.5224 20 10.0002ZM18.5 10.0002C18.5 14.694 14.6938 18.5002 10 18.5002C5.30621 18.5002 1.5 14.694 1.5 10.0002C1.5 5.30577 5.30586 1.5002 10 1.5002C14.6941 1.5002 18.5 5.30577 18.5 10.0002ZM12.0443 6.97651C12.2628 6.68337 12.2395 6.26665 11.9738 5.99981C11.6815 5.70629 11.2066 5.70527 10.9131 5.99753L7.42711 9.46853L7.35412 9.55275C7.13513 9.84682 7.15946 10.265 7.42711 10.5315L10.9131 14.0025L10.9974 14.0749C11.2915 14.2921 11.7081 14.267 11.9738 14.0002L12.0462 13.9159C12.2634 13.6218 12.2383 13.2052 11.9715 12.9395L9.02 9.999L11.9715 7.06047L12.0443 6.97651Z" fill="#393939"/>
</svg>
