<svg width="16" height="18" viewBox="0 0 16 18" fill="none" xmlns="http://www.w3.org/2000/svg">
<path d="M16 7.37766V10.6223H0V7.37766H16ZM8 18C7.32121 18 6.74343 17.7615 6.26667 17.2844C5.79798 16.7992 5.56364 16.2111 5.56364 15.5202C5.56364 14.8622 5.79798 14.2947 6.26667 13.8177C6.74343 13.3406 7.32121 13.1021 8 13.1021C8.64646 13.1021 9.20404 13.3406 9.67273 13.8177C10.1414 14.2947 10.3758 14.8622 10.3758 15.5202C10.3758 16.2111 10.1414 16.7992 9.67273 17.2844C9.20404 17.7615 8.64646 18 8 18ZM8 4.91021C7.54747 4.91021 7.13535 4.79918 6.76364 4.57711C6.4 4.35504 6.10909 4.05483 5.89091 3.67649C5.67273 3.29815 5.56364 2.8828 5.56364 2.43043C5.56364 1.76422 5.79798 1.1926 6.26667 0.715558C6.74343 0.238519 7.32121 0 8 0C8.65454 0 9.21212 0.238519 9.67273 0.715558C10.1414 1.1926 10.3758 1.76422 10.3758 2.43043C10.3758 3.11309 10.1414 3.69705 9.67273 4.18232C9.21212 4.66758 8.65454 4.91021 8 4.91021Z" fill="white"/>
</svg>
