<svg width="89" height="106" viewBox="0 0 89 106" fill="none" xmlns="http://www.w3.org/2000/svg">
<path d="M40.9797 94.7593C53.6164 94.7593 67.3746 95.4032 78.8809 82.9722C81.9176 79.6915 86.6735 73.803 84.4081 65.6018C82.978 60.4246 79.8281 57.5339 77.2681 55.3657C72.7431 51.5334 67.8528 49.448 63.0047 48.3004C53.0773 45.9505 41.6269 46.3305 32.1092 53.2634C28.5629 55.8466 18.402 62.8209 20.2147 74.3904C21.7358 84.0986 27.1639 88.7765 31.5716 91.037C39.9795 95.3492 48.9995 95.5092 57.6119 96" stroke="#2295FF" stroke-width="2" stroke-linecap="round"/>
<path d="M30.5418 53.7775C27.7665 48.4143 25.2495 43.2117 29.5189 37.9056C32.6694 33.9901 37.489 35.3793 41.6376 36.6879C44.289 37.5242 49.5576 40.966 45.9257 37.2652C38.834 30.0389 34.9393 18.5667 31.3946 9.29991C30.5506 7.09335 28.1933 4.22085 31.161 5.89349C33.4419 7.17907 35.5008 9.06957 37.7214 10.3999C39.8085 11.6502 33.2469 7.67788 32.1489 7.02911C31.2882 6.52062 30.6802 5.22378 29.89 6.53301C28.3214 9.13183 28.071 12.7555 26.8319 15.5772" stroke="#2295FF" stroke-width="3" stroke-linecap="round"/>
<path d="M48.9545 76.8182V76.2045C48.9545 74.7983 49.0653 73.6776 49.2869 72.8423C49.5085 72.0071 49.8366 71.3381 50.2713 70.8352C50.706 70.3239 51.2386 69.8636 51.8693 69.4545C52.4148 69.0966 52.9006 68.7514 53.3267 68.419C53.7614 68.0866 54.1023 67.733 54.3494 67.358C54.6051 66.983 54.733 66.5568 54.733 66.0795C54.733 65.6534 54.6307 65.2784 54.4261 64.9545C54.2216 64.6307 53.9446 64.3793 53.5952 64.2003C53.2457 64.0213 52.858 63.9318 52.4318 63.9318C51.9716 63.9318 51.5455 64.0384 51.1534 64.2514C50.7699 64.4645 50.4588 64.7585 50.2202 65.1335C49.9901 65.5085 49.875 65.9432 49.875 66.4375H43.3295C43.3466 64.5625 43.7727 63.0412 44.608 61.8736C45.4432 60.6974 46.5511 59.8366 47.9318 59.2912C49.3125 58.7372 50.8295 58.4602 52.483 58.4602C54.3068 58.4602 55.9347 58.7287 57.3665 59.2656C58.7983 59.794 59.9276 60.5952 60.7543 61.669C61.581 62.7344 61.9943 64.0682 61.9943 65.6705C61.9943 66.7017 61.8153 67.6094 61.4574 68.3935C61.108 69.169 60.6179 69.8551 59.9872 70.4517C59.3651 71.0398 58.6364 71.5767 57.8011 72.0625C57.1875 72.4205 56.6719 72.7912 56.2543 73.1747C55.8366 73.5497 55.5213 73.9801 55.3082 74.4659C55.0952 74.9432 54.9886 75.5227 54.9886 76.2045V76.8182H48.9545ZM52.0739 85.4091C51.0852 85.4091 50.2372 85.0639 49.5298 84.3736C48.831 83.6747 48.4858 82.8267 48.4943 81.8295C48.4858 80.858 48.831 80.027 49.5298 79.3366C50.2372 78.6463 51.0852 78.3011 52.0739 78.3011C53.0114 78.3011 53.8381 78.6463 54.554 79.3366C55.2784 80.027 55.6449 80.858 55.6534 81.8295C55.6449 82.4943 55.4702 83.0994 55.1293 83.6449C54.7969 84.1818 54.3622 84.6122 53.8253 84.9361C53.2884 85.2514 52.7045 85.4091 52.0739 85.4091Z" fill="#2295FF"/>
</svg>
